<svg aria-hidden="true" style="position:absolute;width:0;height:0;overflow:hidden" xmlns="http://www.w3.org/2000/svg">
<defs>
<symbol id="icon-user-base" viewBox="0 0 32 32">
<path fill="#4f2ee8" style="fill: var(--color1, #4f2ee8)" d="M5.333 29.333c0-2.829 1.124-5.542 3.124-7.542s4.713-3.124 7.542-3.124c2.829 0 5.542 1.124 7.542 3.124s3.124 4.713 3.124 7.542h-21.333zM16 17.333c-4.42 0-8-3.58-8-8s3.58-8 8-8c4.42 0 8 3.58 8 8s-3.58 8-8 8z"></path>
</symbol>
<symbol id="icon-shop" viewBox="0 0 20 20">
<path d="M6.452.713a3.204 3.204 0 0 0-.914.302c-.939.459-1.572 1.273-1.807 2.325-.041.182-.051.324-.061.853l-.012.635-1.345.007-1.345.007-.131.061a.908.908 0 0 0-.385.339c-.131.223-.125-.04-.125 5.014 0 3.064.008 4.733.024 4.859.072.578.367 1.161.776 1.535.418.383.931.608 1.508.663.335.032 8.395.032 8.73 0a2.512 2.512 0 0 0 1.447-.61c.445-.383.761-.983.837-1.588.016-.126.024-1.795.024-4.859 0-5.054.006-4.791-.125-5.014a.908.908 0 0 0-.385-.339l-.131-.061-1.345-.007-1.345-.007-.012-.635c-.013-.682-.036-.849-.169-1.246A3.356 3.356 0 0 0 7.513.711a4.428 4.428 0 0 0-1.061.002m1.052 1.702c.461.153.807.463 1.015.908.113.242.137.41.137.988l.001.519H5.343l.001-.519c0-.703.047-.901.299-1.272a1.741 1.741 0 0 1 1.061-.682 2 2 0 0 1 .8.058M3.667 7.018c.008.492.01.511.07.639.087.186.23.332.412.422a.59.59 0 0 0 .342.075c.25-.001.415-.066.581-.229.228-.224.271-.383.271-.998V6.51h3.314v.417c0 .615.043.774.271.998a.745.745 0 0 0 .58.228.618.618 0 0 0 .319-.061.875.875 0 0 0 .422-.412l.076-.154.008-.508.008-.508h1.653l-.006 4.264-.006 4.264-.062.131a.8.8 0 0 1-.39.4l-.154.076H2.624l-.154-.076a.8.8 0 0 1-.39-.4l-.062-.131-.006-4.264-.006-4.264h1.653l.008.508"/>
</symbol>
<symbol id="icon-burger" viewBox="0 0 28 28">
<path d="M3.029 6.129a1.175 1.175 0 0 0-.346.307c-.126.18-.14.233-.14.564 0 .331.014.384.14.564.077.109.233.248.347.308l.206.109 10.81-.012 10.811-.012.172-.117c.095-.064.23-.199.3-.299.112-.161.128-.226.128-.545 0-.326-.014-.381-.14-.56a1.175 1.175 0 0 0-.346-.307l-.206-.109H3.235l-.206.109m0 4.666c-.113.06-.269.198-.346.308-.126.179-.14.233-.14.564 0 .33.014.384.14.564.077.109.233.248.347.307l.206.109 8.477-.012 8.477-.012.173-.116c.094-.064.229-.199.299-.3.113-.16.128-.226.128-.544 0-.327-.014-.381-.14-.56a1.179 1.179 0 0 0-.346-.308l-.205-.108H3.235l-.206.108m0 4.667a1.19 1.19 0 0 0-.346.307c-.126.18-.14.234-.14.564 0 .331.014.385.14.564.077.11.233.248.347.308l.206.109 10.81-.012 10.811-.012.172-.117c.095-.064.23-.199.3-.299.112-.161.128-.226.128-.544 0-.327-.014-.381-.14-.561a1.19 1.19 0 0 0-.346-.307l-.206-.109H3.235l-.206.109m0 4.667a1.175 1.175 0 0 0-.346.307c-.126.18-.14.233-.14.564 0 .331.014.384.14.564.077.109.233.248.347.308l.206.109 8.477-.012 8.477-.012.173-.117c.094-.064.229-.199.299-.299.113-.161.128-.226.128-.545 0-.326-.014-.381-.14-.56a1.175 1.175 0 0 0-.346-.307l-.205-.109H3.235l-.206.109"/>
</symbol>
<symbol id="icon-arrow-right" viewBox="0 0 36 36">
<path d="M19.414 27.414l10-10c0.781-0.781 0.781-2.047 0-2.828l-10-10c-0.781-0.781-2.047-0.781-2.828 0s-0.781 2.047 0 2.828l6.586 6.586h-19.172c-1.105 0-2 0.895-2 2s0.895 2 2 2h19.172l-6.586 6.586c-0.39 0.39-0.586 0.902-0.586 1.414s0.195 1.024 0.586 1.414c0.781 0.781 2.047 0.781 2.828 0z"></path>
</symbol>
<symbol id="icon-lock" viewBox="0 0 32 32">
<path d="M14.533 0.799c-0.637 0.105-1.202 0.257-1.743 0.459l0.063-0.021c-2.751 0.996-4.931 3.401-5.657 6.244-0.244 0.957-0.271 1.261-0.3 3.511l-0.029 2.167-0.519 0.031c-1.193 0.073-2.155 0.377-3.032 0.961-1.163 0.775-2.036 1.977-2.349 3.239-0.237 0.953-0.247 1.139-0.247 4.824 0 3.688 0.015 3.979 0.245 4.861 0.483 1.848 2.109 3.473 3.968 3.963 0.993 0.263 1.209 0.268 11.067 0.268s10.073-0.005 11.067-0.268c1.861-0.491 3.48-2.108 3.972-3.971 0.24-0.909 0.277-1.708 0.251-5.252-0.025-3.351-0.036-3.544-0.256-4.425-0.377-1.512-1.509-2.873-3.020-3.629-0.648-0.324-1.799-0.585-2.58-0.587h-0.3l-0.029-2.173c-0.029-2.257-0.056-2.561-0.3-3.519-0.809-3.165-3.376-5.724-6.537-6.516-1.161-0.289-2.659-0.357-3.733-0.167zM17.121 3.443c2.001 0.324 3.861 1.749 4.719 3.616 0.516 1.124 0.611 1.773 0.612 4.208l0.001 1.853h-12.907l0.001-1.853c0-1.313 0.023-2.009 0.076-2.388 0.312-2.153 1.653-3.936 3.499-4.858l0.037-0.017c1.249-0.615 2.521-0.795 3.961-0.561z"></path>
</symbol>
<symbol id="icon-logo" viewBox="0 0 32 32">
<path fill="#f6f6f6" style="fill:var(--color1, #f6f6f6)" d="m0 0 16.343 16.171L32 32V0H0z"/>
<path fill="#f6f6f6" style="fill:var(--color1, #f6f6f6)" d="M4.457 4.229 16.4 16.058l11.257 11.486h-23.2V4.23z"/>
<path fill="#4f2ee8" style="fill:var(--color2, #4f2ee8)" d="M27.733 27.618 15.79 15.789 4.533 4.303h23.2v23.314z"/>
<path fill="#4f2ee8" style="fill:var(--color2, #4f2ee8)" d="m9.257 9.029 13.6 13.6h-13.6v-13.6z"/>
<path fill="#f6f6f6" style="fill:var(--color1, #f6f6f6)" d="m9.257 9.029 13.6 13.6v-13.6h-13.6z"/>
</symbol>
<symbol id="icon-mail" viewBox="0 0 38 32">
<path d="M6.367 1.079c-1.239 0.141-2.113 0.439-2.969 1.011-1.583 1.059-2.465 2.483-2.781 4.481-0.118 0.749-0.118 18.039 0 18.839 0.295 2.012 1.2 3.472 2.801 4.528 0.902 0.593 1.695 0.857 3.024 1.004 0.852 0.095 24.081 0.095 24.934 0 1.329-0.147 2.122-0.41 3.024-1.004 1.601-1.056 2.506-2.516 2.801-4.528 0.118-0.8 0.118-18.090 0-18.839-0.317-2.009-1.212-3.444-2.801-4.49-0.902-0.595-1.695-0.858-3.024-1.005-0.746-0.083-24.288-0.080-25.009 0.003zM31.263 3.965c0.641 0.102 1.036 0.233 1.463 0.489 0.448 0.269 1.043 0.912 1.267 1.369 0.207 0.423 0.342 0.964 0.26 1.046-0.175 0.172-13.985 9.801-14.39 10.032-0.449 0.257-0.511 0.275-0.954 0.275s-0.505-0.017-0.954-0.273c-0.406-0.233-14.22-9.865-14.39-10.033-0.081-0.081 0.052-0.623 0.259-1.043 0.215-0.439 0.772-1.056 1.204-1.332 0.678-0.433 1.114-0.525 2.819-0.585 2.25-0.080 22.867-0.029 23.415 0.057zM7.652 13.293c3.891 2.73 4.074 2.867 3.965 2.97-0.256 0.241-8.004 7.222-8.105 7.302-0.103 0.081-0.109-0.279-0.109-6.575 0-5.565 0.015-6.652 0.084-6.609 0.047 0.028 1.921 1.338 4.164 2.912zM34.4 20.34l-0.017 3.312-4.106-3.711c-2.257-2.041-4.108-3.74-4.112-3.775-0.003-0.035 1.844-1.36 4.106-2.945l4.112-2.884 0.017 3.345c0.009 1.84 0.009 4.835 0 6.657zM15.226 18.598c1.66 1.153 2.521 1.504 3.683 1.504s2.023-0.351 3.683-1.504c0.553-0.384 1.024-0.697 1.047-0.697 0.036 0 9.295 8.336 9.732 8.765l0.188 0.182-0.218 0.23c-0.513 0.54-1.169 0.839-2.148 0.98-0.873 0.125-23.695 0.125-24.567 0-0.979-0.141-1.635-0.441-2.148-0.98l-0.218-0.23 0.188-0.182c0.428-0.42 9.695-8.765 9.732-8.765 0.023 0 0.495 0.313 1.047 0.697z"></path>
</symbol>
<symbol id="icon-trash" viewBox="0 0 32 32">
<path fill="none" stroke="#fff" style="stroke: var(--color2, #fff)" stroke-linejoin="round" stroke-linecap="round" stroke-miterlimit="4" stroke-width="2.9091" d="M12 4h8M4 8h24M25.333 8l-0.935 14.026c-0.14 2.104-0.21 3.157-0.665 3.954-0.4 0.702-1.004 1.267-1.731 1.619-0.826 0.4-1.881 0.4-3.99 0.4h-4.025c-2.109 0-3.163 0-3.99-0.4-0.727-0.353-1.331-0.917-1.731-1.619-0.455-0.798-0.525-1.85-0.665-3.954l-0.935-14.026M13.333 14v6.667M18.667 14v6.667"></path>
</symbol>
<symbol id="icon-scroll-up" viewBox="0 0 55 32">
<path fill="#fff" style="fill: var(--color2, #fff)" d="M1.091 25.309l24.436-24.509c0.291-0.291 0.606-0.496 0.945-0.617 0.339-0.122 0.703-0.183 1.091-0.183s0.752 0.061 1.091 0.183c0.339 0.12 0.655 0.326 0.946 0.617l24.509 24.509c0.679 0.679 1.018 1.527 1.018 2.545s-0.364 1.891-1.091 2.618c-0.727 0.727-1.576 1.091-2.545 1.091s-1.818-0.364-2.545-1.091l-21.382-21.382-21.382 21.382c-0.679 0.679-1.515 1.018-2.508 1.018-0.995 0-1.856-0.364-2.583-1.091s-1.091-1.576-1.091-2.545c0-0.97 0.364-1.818 1.091-2.545z"></path>
</symbol>
<symbol id="icon-down-menu" viewBox="0 0 60 32">
<path fill="#fff" style="fill: var(--color1, #fff)" d="M3.167 3h53.667l-24.123 27.27c-0.719 0.812-1.694 1.269-2.71 1.269s-1.991-0.456-2.71-1.269l-24.123-27.27z"></path>
</symbol>
<symbol id="icon-scroll-down" viewBox="0 0 56 32">
<path fill="#4f2ee8" style="fill: var(--color1, #4f2ee8)" d="M25.397 21.134c0.341 0.344 0.746 0.616 1.193 0.803s0.926 0.282 1.41 0.282c0.484 0 0.963-0.096 1.41-0.282s0.852-0.459 1.193-0.803l16.794-16.83c0.341-0.344 0.746-0.616 1.193-0.803s0.926-0.282 1.41-0.282c0.484 0 0.963 0.096 1.41 0.282s0.852 0.459 1.193 0.803c0.683 0.687 1.066 1.616 1.066 2.585s-0.383 1.898-1.066 2.585l-16.83 16.83c-2.063 2.060-4.858 3.217-7.773 3.217s-5.711-1.157-7.773-3.217l-16.83-16.83c-0.677-0.683-1.059-1.605-1.063-2.567-0.003-0.483 0.090-0.961 0.272-1.408s0.451-0.853 0.791-1.196c0.341-0.344 0.746-0.616 1.193-0.803s0.926-0.282 1.41-0.282 0.963 0.096 1.41 0.282c0.447 0.186 0.852 0.459 1.193 0.803l16.793 16.83z"></path>
</symbol>
<symbol id="icon-x-close" viewBox="0 0 32 32">
<path d="M6.552 5.57c-.467.153-.886.601-1.002 1.071-.073.296-.031.724.099 1 .081.172.792.911 3.165 3.291L11.875 14l-3.061 3.068c-2.422 2.428-3.084 3.117-3.172 3.302-.162.337-.16.928.002 1.259a1.7 1.7 0 0 0 .727.727c.331.162.922.164 1.259.002.185-.088.874-.75 3.302-3.172L14 16.125l3.068 3.061c2.428 2.422 3.117 3.084 3.302 3.172.337.162.928.16 1.259-.002a1.7 1.7 0 0 0 .727-.727c.162-.331.164-.922.002-1.259-.088-.185-.75-.874-3.172-3.302L16.125 14l3.061-3.068c2.422-2.428 3.084-3.117 3.172-3.302.162-.337.16-.928-.002-1.259a1.7 1.7 0 0 0-.727-.727c-.331-.162-.922-.164-1.259-.002-.185.088-.874.75-3.302 3.172L14 11.875l-3.068-3.061C8.51 6.399 7.815 5.731 7.635 5.646c-.279-.132-.802-.168-1.083-.076"/>
</symbol>
<symbol id="icon-ukraine" viewBox="0 0 20 32">
<path d="M9.795.26a4.784 4.784 0 0 0-.979 2.169c-.092.525-.057 1.623.134 4.254.154 2.102.186 2.696.206 3.817.013.736.006 1.293-.02 1.633-.15 1.971-.678 3.939-1.622 6.052-.232.521-.901 1.85-.957 1.903-.03.028-.186.005-.624-.093-.957-.215-1.346-.459-1.622-1.016-.125-.253-.128-.267-.128-.627 0-.352.006-.38.114-.602.16-.328.512-.677.841-.832.282-.134.586-.186.879-.151.11.013.204.021.208.017.005-.004-.17-1.386-.39-3.071a634.876 634.876 0 0 1-.466-3.636 8.986 8.986 0 0 0-.499-2.168A9.96 9.96 0 0 0 1.2 3.126C.886 2.909.08 2.433.027 2.433.012 2.433 0 7.631 0 13.983v11.55h5.59l.059.275c.081.377.289 1.018.47 1.449.569 1.358 1.534 2.587 2.798 3.565.486.376.803.695.954.964.056.099.112.18.124.18a.814.814 0 0 0 .133-.185c.169-.28.446-.558.835-.839.567-.41.83-.631 1.211-1.017 1.041-1.053 1.811-2.477 2.169-4.011l.077-.331 2.79-.008 2.79-.009V2.432l-.17.087a10.13 10.13 0 0 0-1.297.818 11.213 11.213 0 0 0-1.668 1.63 10.949 10.949 0 0 0-2.163 4.783c-.078.418-.941 7.022-.921 7.042.007.007.104 0 .214-.017.829-.125 1.702.521 1.847 1.368.075.437-.095.912-.455 1.271-.326.325-.562.421-1.545.632l-.375.08-.248-.471c-1.104-2.098-1.844-4.178-2.167-6.088-.157-.931-.196-1.443-.195-2.534.002-1.134.027-1.639.193-3.833.173-2.286.191-2.635.195-3.667.004-1.052-.01-1.163-.231-1.828a4.908 4.908 0 0 0-.903-1.587l-.105-.126-.211.268M2.117 6.283a8.31 8.31 0 0 1 1.517 3.334c.059.289.733 5.619.733 5.8 0 .047-.082.121-.275.249-.638.422-1.218 1.141-1.393 1.726l-.043.141H1.7V5.79l.071.063c.039.035.194.229.346.43m16.216 5.401v5.884l-.469-.009-.469-.009-.093-.24c-.255-.655-.727-1.225-1.363-1.646-.208-.137-.272-.198-.272-.256 0-.132.666-5.513.719-5.808.201-1.123.723-2.271 1.492-3.282.202-.265.418-.518.443-.518.007 0 .012 2.648.012 5.884m-7.874 6.149c.281.689.67 1.492 1.093 2.256.137.245.248.454.248.462 0 .009-.023.016-.051.016-.122 0-.607.22-.883.402a4.808 4.808 0 0 0-.575.46l-.274.263-.25-.233c-.444-.413-.916-.711-1.342-.844-.105-.033-.192-.072-.192-.085 0-.014.12-.243.266-.509.61-1.113 1.042-2.067 1.387-3.066l.125-.362.173.495c.095.272.219.608.275.745m-7.792 1.375c.002.101.231.597.38.821.523.786 1.252 1.263 2.303 1.505l.354.085c.048.014.046.052-.023.392-.116.57-.18 1.047-.204 1.507l-.021.415H1.7v-4.766h.483c.364 0 .484.01.484.041m15.666 2.342v2.383h-3.756l-.022-.405a11.712 11.712 0 0 0-.219-1.595 1.905 1.905 0 0 1-.052-.294c.006-.006.21-.06.455-.12.555-.137.883-.273 1.267-.525.615-.404 1.147-1.079 1.329-1.686l.042-.141h.956v2.383m-10.557.518c.736.225 1.391 1.043 1.391 1.739v.126H7.1v-.275c0-.327.067-.803.185-1.315l.086-.374.106.02c.059.011.193.047.299.079m4.954.207c.122.515.169.823.192 1.25l.021.408h-2.076v-.115c0-.2.069-.46.191-.718.148-.313.552-.73.865-.894.162-.085.585-.226.714-.237.01-.002.052.136.093.306m-3.563 4.977v1.685l-.17-.193a8.098 8.098 0 0 1-1.188-1.803c-.173-.364-.474-1.198-.475-1.316-.001-.054.065-.058.916-.058h.917v1.685m3.533-1.656c0 .083-.188.659-.32.985-.309.754-.846 1.614-1.357 2.169l-.154.167-.001-1.675-.001-1.675h.916c.512 0 .917.013.917.029"/>
</symbol>
<symbol id="icon-user" viewBox="0 0 32 32">
<path d="M26.514 19.622c-0.816 0-1.59 0.18-2.286 0.499-0.696-0.32-1.47-0.499-2.286-0.499s-1.59 0.18-2.286 0.499c-0.696-0.32-1.47-0.499-2.286-0.499-0.453 0-0.892 0.056-1.312 0.159-0.498-0.368-1.060-0.654-1.666-0.838-0.11-0.364-0.257-0.711-0.436-1.039 0.429-0.859 0.672-1.828 0.672-2.854 0-1.989-0.908-3.767-2.331-4.94l0.544-1.39c2.001-0.022 3.616-1.65 3.616-3.656 0-2.020-1.637-3.657-3.657-3.657s-3.657 1.637-3.657 3.657c0 1.046 0.44 1.989 1.144 2.656l-0.445 1.136c-0.516-0.134-1.056-0.206-1.614-0.206s-1.098 0.072-1.614 0.206l-0.445-1.136c0.704-0.667 1.144-1.61 1.144-2.656 0-2.020-1.637-3.657-3.657-3.657s-3.657 1.637-3.657 3.657c0 2.006 1.615 3.634 3.616 3.656l0.544 1.39c-1.424 1.174-2.331 2.951-2.331 4.94 0 1.784 0.731 3.397 1.908 4.558-0.051 0.302-0.080 0.612-0.080 0.928 0 2.476 1.64 4.567 3.893 5.25 0.683 2.253 2.774 3.893 5.25 3.893 0.453 0 0.892-0.056 1.312-0.159 0.911 0.674 2.038 1.073 3.259 1.073 0.816 0 1.59-0.18 2.286-0.499 0.696 0.32 1.47 0.499 2.286 0.499s1.59-0.18 2.286-0.499c0.696 0.32 1.47 0.499 2.286 0.499 3.030 0 5.486-2.456 5.486-5.486s-2.456-5.486-5.485-5.486zM12.8 4.15c0.504 0 0.914 0.41 0.914 0.914s-0.41 0.914-0.914 0.914-0.914-0.41-0.914-0.914c0-0.504 0.41-0.914 0.914-0.914zM3.657 5.978c-0.504 0-0.914-0.41-0.914-0.914s0.41-0.914 0.914-0.914c0.504 0 0.914 0.41 0.914 0.914s-0.41 0.914-0.914 0.914zM4.571 15.050c0-2.017 1.641-3.657 3.657-3.657s3.657 1.64 3.657 3.657-1.641 3.657-3.657 3.657-3.657-1.64-3.657-3.657zM6.484 21.207c0.555 0.157 1.14 0.243 1.745 0.243 1.356 0 2.612-0.423 3.647-1.142 0.006 0.075 0.010 0.151 0.010 0.228 0 1.512-1.23 2.743-2.743 2.743-1.281 0-2.359-0.882-2.659-2.071zM12.8 26.936c-0.902 0-1.703-0.437-2.203-1.111 1.86-0.51 3.325-1.975 3.835-3.835 0.673 0.5 1.111 1.301 1.111 2.203 0 1.512-1.23 2.743-2.743 2.743zM17.371 27.85c-0.154 0-0.304-0.013-0.451-0.038 0.849-0.966 1.365-2.232 1.365-3.619 0-0.614-0.102-1.204-0.289-1.756 1.212 0.284 2.117 1.373 2.117 2.67 0 1.513-1.23 2.743-2.743 2.743zM22.125 27.843c0.465-0.806 0.732-1.739 0.732-2.736s-0.267-1.93-0.732-2.736c1.428 0.094 2.56 1.285 2.56 2.736s-1.133 2.642-2.56 2.736zM26.697 27.843c0.465-0.806 0.732-1.739 0.732-2.736s-0.267-1.93-0.732-2.736c1.428 0.094 2.56 1.285 2.56 2.736s-1.133 2.642-2.56 2.736z"></path>
</symbol>
</defs>
</svg>