<?xml version="1.0" encoding="iso-8859-1"?>
<!-- Uploaded to: SVG Repo, www.svgrepo.com, Generator: SVG Repo Mixer Tools -->
<svg fill="#000000" height="800px" width="800px" version="1.1" id="Layer_1" xmlns="http://www.w3.org/2000/svg" xmlns:xlink="http://www.w3.org/1999/xlink" 
	 viewBox="0 0 512 512" xml:space="preserve">
<g>
	<g>
		<path d="M500.397,322.135c-6.407,0-11.603,5.196-11.603,11.603c0,16.954-13.793,30.747-30.747,30.747H444.52v-61.494h13.527
			c6.407,0,11.603-5.196,11.603-11.603c0-6.407-5.196-11.603-11.603-11.603h-40.946c-4.708,0-9.235-1.384-13.138-3.989
			c-0.03-0.023-0.057-0.049-0.088-0.072c-0.173-0.126-0.353-0.234-0.529-0.349c-6.284-4.476-10.029-11.691-10.029-19.375
			c0-5.525-0.364-11.079-1.054-16.524c-0.027-0.821-0.136-1.649-0.343-2.471c-4.371-30.101-19.173-57.875-41.82-78.439
			c-0.435-0.458-0.902-0.895-1.422-1.288c-0.001-0.001-0.003-0.002-0.005-0.003c-24.074-21.261-54.944-32.963-87.045-32.963h-5.604
			c-32.391,0-63.543,11.917-87.708,33.547c-23.405,20.911-38.601,49.461-42.786,80.385c-0.002,0.016-0.003,0.034-0.006,0.05
			c-0.008,0.064-0.015,0.126-0.022,0.19c-0.773,5.772-1.167,11.664-1.167,17.518c0,7.77-3.833,15.082-10.247,19.553
			c-3.98,2.77-8.661,4.233-13.538,4.233H53.952C24.203,279.785,0,303.987,0,333.738s24.203,53.952,53.952,53.952h46.596
			c30.048,0,59.456-10.431,82.802-29.366c0.007-0.006,0.014-0.012,0.021-0.019c0.049-0.039,0.096-0.081,0.144-0.122
			c24.533-19.941,41.067-47.894,46.625-78.775c0.005-0.019,0.007-0.036,0.01-0.055c0.03-0.167,0.07-0.331,0.099-0.497
			c0.033-0.182,0.053-0.369,0.085-0.552c0.002-0.016,0.006-0.033,0.008-0.05c1.25-7.274,1.895-14.755,1.895-22.255
			c0-6.16,2.354-12.005,6.629-16.457c4.538-4.726,10.631-7.328,17.157-7.328h5.604c6.543,0,12.647,2.614,17.187,7.357
			c4.256,4.451,6.6,10.285,6.6,16.428c0,7.657,0.672,15.349,1.997,22.854c5.473,31.205,22.148,59.445,46.951,79.516
			c23.344,18.908,52.729,29.32,82.742,29.32h40.946c29.75,0,53.952-24.202,53.952-53.952
			C512,327.329,506.804,322.135,500.397,322.135z M100.548,364.484H53.952c-16.954,0-30.747-13.793-30.747-30.747
			s13.793-30.747,30.747-30.747h46.596c6.032,0,11.917-1.137,17.412-3.333l41.059,47.664
			C141.603,358.571,121.617,364.484,100.548,364.484z M177.098,332.751l-40.354-46.844c6.615-8.012,10.466-18.063,10.756-28.627
			l57.979,26.251C200.595,302.127,190.79,319.109,177.098,332.751z M209.034,256c0,1.212-0.038,2.423-0.079,3.633l-58.93-26.681
			c3.983-18.302,12.708-35.289,25.262-49.281l40.405,48.231C211.36,239.125,209.034,247.405,209.034,256z M247.275,209.827
			c-5.336,0.998-10.414,2.909-15.064,5.657l-39.676-47.361c16.062-11.637,34.964-18.635,54.74-20.235V209.827z M285.503,215.521
			c-4.636-2.75-9.7-4.667-15.022-5.675v-61.95c19.764,1.617,38.651,8.625,54.697,20.269L285.503,215.521z M308.618,255.999
			c0-8.569-2.312-16.825-6.62-24.035l40.418-48.24c12.529,13.99,21.237,30.97,25.213,49.262l-58.93,26.686
			C308.656,258.448,308.618,257.223,308.618,255.999z M312.188,283.566l57.964-26.249c0.298,10.586,4.167,20.643,10.804,28.648
			l-40.348,46.841C326.899,319.165,317.078,302.176,312.188,283.566z M421.315,364.484h-4.213c-20.7,0-41.028-6.037-58.388-17.143
			l41.055-47.66c5.474,2.18,11.333,3.309,17.333,3.309h4.213V364.484z"/>
	</g>
</g>
<g>
	<g>
		<path d="M498.592,298.138c-0.941-1.069-1.934-2.114-2.956-3.107c-4.595-4.466-11.941-4.361-16.407,0.233
			c-4.467,4.595-4.361,11.94,0.233,16.407c0.589,0.572,1.163,1.175,1.706,1.791c2.294,2.607,5.496,3.94,8.717,3.94
			c2.721,0,5.454-0.951,7.659-2.89C502.354,310.282,502.825,302.95,498.592,298.138z"/>
	</g>
</g>
<g>
	<g>
		<path d="M70.521,317.111c-6.408,0-11.603,5.196-11.603,11.603v10.825c0,6.407,5.195,11.603,11.603,11.603
			c6.408,0,11.603-5.196,11.603-11.603v-10.825C82.123,322.305,76.929,317.111,70.521,317.111z"/>
	</g>
</g>
</svg>